<svg width="244" height="36" viewBox="0 0 244 36" fill="none" xmlns="http://www.w3.org/2000/svg">
<g filter="url(#filter0_d)">
<path d="M22.4609 18.8633C22.4609 23.8789 19.6895 26.3867 14.1465 26.3867C10.4668 26.3867 7.26172 25.5957 4.53125 24.0137L5.7793 21.3066C6.83398 21.9277 8.11133 22.4551 9.61133 22.8887C11.123 23.3223 12.5879 23.5391 14.0059 23.5391C15.4355 23.5391 16.5137 23.3574 17.2402 22.9941C18.541 22.3379 19.1914 21.002 19.1914 18.9863C19.1914 18.1543 19.1504 17.5977 19.0684 17.3164C18.7988 16.3789 17.8086 15.6406 16.0977 15.1016L9.96289 13.0625C7.98242 12.418 6.6582 11.6035 5.99023 10.6191C5.33398 9.62305 5.00586 8.35156 5.00586 6.80469C5.01758 4.57812 5.83203 2.87891 7.44922 1.70703C8.84375 0.710938 10.8711 0.207031 13.5312 0.195312C17.3164 0.195312 20.1582 0.787109 22.0566 1.9707L21.1953 4.73047C19.1094 3.60547 16.7598 3.04297 14.1465 3.04297C12.3301 3.04297 10.9473 3.27734 9.99805 3.74609C9.04883 4.21484 8.53906 4.9707 8.46875 6.01367C8.44531 6.3418 8.43359 6.63477 8.43359 6.89258C8.43359 7.73633 8.60938 8.38672 8.96094 8.84375C9.32422 9.30078 10.0215 9.70508 11.0527 10.0566L17.4512 12.2188C19.209 12.8164 20.4805 13.6016 21.2656 14.5742C22.0625 15.5352 22.4609 16.9648 22.4609 18.8633ZM38.6504 23.5391C40.9707 23.5391 42.6582 23.1699 43.7129 22.4316C44.7676 21.6816 45.2949 20.2051 45.2949 18.002V8.80859C45.2949 6.60547 44.7617 5.09375 43.6953 4.27344C42.6406 3.45312 40.9648 3.04297 38.668 3.04297C35.1055 3.04297 32.9434 4.02734 32.1816 5.99609C31.8887 6.74609 31.7422 7.68359 31.7422 8.80859V18.002C31.7422 20.1934 32.3164 21.6641 33.4648 22.4141C34.6133 23.1641 36.3418 23.5391 38.6504 23.5391ZM32.1465 25.2266C30.6113 24.4531 29.5684 23.416 29.0176 22.1152C28.4668 20.8145 28.1914 19.2617 28.1914 17.457V9.45898C28.1914 5.81445 29.2227 3.28906 31.2852 1.88281C32.9492 0.757812 35.4102 0.195312 38.668 0.195312C44.4336 0.195312 47.7324 2.33984 48.5645 6.62891C48.7402 7.53125 48.8281 8.55078 48.8281 9.6875V17.2109C48.8281 20.75 47.8145 23.2344 45.7871 24.6641C44.1582 25.8125 41.8613 26.3867 38.8965 26.3867C35.9316 26.3867 33.6816 26 32.1465 25.2266ZM55.9297 26V0.582031H59.4629V23.2754H70.8711V26H55.9297ZM85.9707 23.5391C88.291 23.5391 89.9785 23.1699 91.0332 22.4316C92.0879 21.6816 92.6152 20.2051 92.6152 18.002V8.80859C92.6152 6.60547 92.082 5.09375 91.0156 4.27344C89.9609 3.45312 88.2852 3.04297 85.9883 3.04297C82.4258 3.04297 80.2637 4.02734 79.502 5.99609C79.209 6.74609 79.0625 7.68359 79.0625 8.80859V18.002C79.0625 20.1934 79.6367 21.6641 80.7852 22.4141C81.9336 23.1641 83.6621 23.5391 85.9707 23.5391ZM79.4668 25.2266C77.9316 24.4531 76.8887 23.416 76.3379 22.1152C75.7871 20.8145 75.5117 19.2617 75.5117 17.457V9.45898C75.5117 5.81445 76.543 3.28906 78.6055 1.88281C80.2695 0.757812 82.7305 0.195312 85.9883 0.195312C91.7539 0.195312 95.0527 2.33984 95.8848 6.62891C96.0605 7.53125 96.1484 8.55078 96.1484 9.6875V17.2109C96.1484 20.75 95.1348 23.2344 93.1074 24.6641C91.4785 25.8125 89.1816 26.3867 86.2168 26.3867C83.252 26.3867 81.002 26 79.4668 25.2266ZM99.6641 27.8281V25.1914H115.502V27.8281H99.6641ZM122.709 25.2441C121.221 24.4707 120.225 23.4395 119.721 22.1504C119.217 20.8496 118.965 19.2852 118.965 17.457V9.47656C118.965 5.77344 119.926 3.24805 121.848 1.90039C123.477 0.763672 125.844 0.195312 128.949 0.195312C132.066 0.195312 134.328 0.628906 135.734 1.49609C137.141 2.35156 138.02 3.69922 138.371 5.53906C138.535 6.35938 138.617 7.33789 138.617 8.47461L135.26 8.77344C135.26 7.0625 135.113 5.9082 134.82 5.31055C134.527 4.70117 134.234 4.26758 133.941 4.00977C133.66 3.75195 133.191 3.5293 132.535 3.3418C131.879 3.14258 130.854 3.04297 129.459 3.04297C128.064 3.04297 126.969 3.13672 126.172 3.32422C125.375 3.5 124.695 3.80469 124.133 4.23828C123.055 5.07031 122.516 6.59961 122.516 8.82617V18.002C122.516 20.2051 123.061 21.6816 124.15 22.4316C125.24 23.1699 126.975 23.5391 129.354 23.5391C131.744 23.5391 133.268 23.2578 133.924 22.6953C134.58 22.1328 134.984 21.3125 135.137 20.2344C135.219 19.6484 135.26 18.9453 135.26 18.125H138.617C138.617 20.6797 138.248 22.4727 137.51 23.5039C136.15 25.4258 133.566 26.3867 129.758 26.3867C126.559 26.3867 124.209 26.0059 122.709 25.2441ZM145.191 26V0.582031H148.725V23.2754H160.133V26H145.191ZM175.232 23.5391C177.553 23.5391 179.24 23.1699 180.295 22.4316C181.35 21.6816 181.877 20.2051 181.877 18.002V8.80859C181.877 6.60547 181.344 5.09375 180.277 4.27344C179.223 3.45312 177.547 3.04297 175.25 3.04297C171.688 3.04297 169.525 4.02734 168.764 5.99609C168.471 6.74609 168.324 7.68359 168.324 8.80859V18.002C168.324 20.1934 168.898 21.6641 170.047 22.4141C171.195 23.1641 172.924 23.5391 175.232 23.5391ZM168.729 25.2266C167.193 24.4531 166.15 23.416 165.6 22.1152C165.049 20.8145 164.773 19.2617 164.773 17.457V9.45898C164.773 5.81445 165.805 3.28906 167.867 1.88281C169.531 0.757812 171.992 0.195312 175.25 0.195312C181.016 0.195312 184.314 2.33984 185.146 6.62891C185.322 7.53125 185.41 8.55078 185.41 9.6875V17.2109C185.41 20.75 184.396 23.2344 182.369 24.6641C180.74 25.8125 178.443 26.3867 175.479 26.3867C172.514 26.3867 170.264 26 168.729 25.2266ZM202.32 26.3867C197.797 26.3867 194.82 25.1914 193.391 22.8008C192.594 21.4648 192.195 19.7598 192.195 17.6855V0.582031H195.746V18.0547C195.746 21.2422 197.27 23.0352 200.316 23.4336C200.914 23.5039 201.652 23.5391 202.531 23.5391C204.336 23.5391 205.807 23.1875 206.943 22.4844C208.08 21.7812 208.648 20.3047 208.648 18.0547V0.582031H212.199V17.6855C212.199 20.9785 211.227 23.3164 209.281 24.6992C207.688 25.8242 205.367 26.3867 202.32 26.3867ZM223.098 23.3633H229.32C231.875 23.3633 233.58 22.8887 234.436 21.9395C235.303 20.9902 235.736 19.6367 235.736 17.8789V8.93164C235.736 6.3418 234.869 4.66016 233.135 3.88672C232.15 3.44141 230.879 3.22461 229.32 3.23633H223.098V23.3633ZM219.547 26V0.582031H229.637C234.5 0.582031 237.535 2.30469 238.742 5.75C239.094 6.75781 239.27 7.88867 239.27 9.14258V17.5273C239.27 20.3047 238.467 22.4141 236.861 23.8555C235.268 25.2852 232.871 26 229.672 26H219.547Z" fill="url(#paint0_linear)"/>
</g>
<defs>
<filter id="filter0_d" x="0.53125" y="0.195312" width="242.738" height="35.6328" filterUnits="userSpaceOnUse" color-interpolation-filters="sRGB">
<feFlood flood-opacity="0" result="BackgroundImageFix"/>
<feColorMatrix in="SourceAlpha" type="matrix" values="0 0 0 0 0 0 0 0 0 0 0 0 0 0 0 0 0 0 127 0"/>
<feOffset dy="4"/>
<feGaussianBlur stdDeviation="2"/>
<feColorMatrix type="matrix" values="0 0 0 0 0 0 0 0 0 0 0 0 0 0 0 0 0 0 0.25 0"/>
<feBlend mode="normal" in2="BackgroundImageFix" result="effect1_dropShadow"/>
<feBlend mode="normal" in="SourceGraphic" in2="effect1_dropShadow" result="shape"/>
</filter>
<linearGradient id="paint0_linear" x1="125.5" y1="-17" x2="125.5" y2="40" gradientUnits="userSpaceOnUse">
<stop stop-color="#566885"/>
<stop offset="1" stop-color="#0F213D" stop-opacity="0"/>
</linearGradient>
</defs>
</svg>
